<?xml version="1.0" encoding="utf-8"?>
<svg version="1.1" xmlns:xlink="http://www.w3.org/1999/xlink" width="18px" height="18px" viewBox="337 313  18 18" xmlns="http://www.w3.org/2000/svg">
  <path d="M 346 313  C 351.04 313  355 316.96  355 322  C 355 327.04  351.04 331  346 331  C 340.96 331  337 327.04  337 322  C 337 316.96  340.96 313  346 313  Z " fill-rule="nonzero" fill="#ffffff" stroke="none" />
  <path d="M 346 313.5  C 350.76 313.5  354.5 317.24  354.5 322  C 354.5 326.76  350.76 330.5  346 330.5  C 341.24 330.5  337.5 326.76  337.5 322  C 337.5 317.24  341.24 313.5  346 313.5  Z " stroke-width="1" stroke="#d7d7d7" fill="none" />
  <path d="M 346 326.5  C 343.48 326.5  341.5 324.52  341.5 322  C 341.5 319.48  343.48 317.5  346 317.5  C 348.52 317.5  350.5 319.48  350.5 322  C 350.5 324.52  348.52 326.5  346 326.5  " fill-rule="nonzero" fill="#d7d7d7" stroke="none" />
</svg>