<?xml version="1.0" encoding="utf-8"?>
<svg version="1.1" xmlns:xlink="http://www.w3.org/1999/xlink" width="18px" height="18px" viewBox="337 356  18 18" xmlns="http://www.w3.org/2000/svg">
  <path d="M 346 356  C 351.04 356  355 359.96  355 365  C 355 370.04  351.04 374  346 374  C 340.96 374  337 370.04  337 365  C 337 359.96  340.96 356  346 356  Z " fill-rule="nonzero" fill="#ffffff" stroke="none" />
  <path d="M 346 356.5  C 350.76 356.5  354.5 360.24  354.5 365  C 354.5 369.76  350.76 373.5  346 373.5  C 341.24 373.5  337.5 369.76  337.5 365  C 337.5 360.24  341.24 356.5  346 356.5  Z " stroke-width="1" stroke="#d7d7d7" fill="none" />
  <path d="M 346 369.5  C 343.48 369.5  341.5 367.52  341.5 365  C 341.5 362.48  343.48 360.5  346 360.5  C 348.52 360.5  350.5 362.48  350.5 365  C 350.5 367.52  348.52 369.5  346 369.5  " fill-rule="nonzero" fill="#d7d7d7" stroke="none" />
</svg>