<?xml version="1.0" encoding="utf-8"?>
<svg version="1.1" xmlns:xlink="http://www.w3.org/1999/xlink" width="18px" height="18px" viewBox="337 693  18 18" xmlns="http://www.w3.org/2000/svg">
  <path d="M 346 693  C 351.04 693  355 696.96  355 702  C 355 707.04  351.04 711  346 711  C 340.96 711  337 707.04  337 702  C 337 696.96  340.96 693  346 693  Z " fill-rule="nonzero" fill="#ffffff" stroke="none" />
  <path d="M 346 693.5  C 350.76 693.5  354.5 697.24  354.5 702  C 354.5 706.76  350.76 710.5  346 710.5  C 341.24 710.5  337.5 706.76  337.5 702  C 337.5 697.24  341.24 693.5  346 693.5  Z " stroke-width="1" stroke="#d7d7d7" fill="none" />
  <path d="M 346 706.5  C 343.48 706.5  341.5 704.52  341.5 702  C 341.5 699.48  343.48 697.5  346 697.5  C 348.52 697.5  350.5 699.48  350.5 702  C 350.5 704.52  348.52 706.5  346 706.5  " fill-rule="nonzero" fill="#d7d7d7" stroke="none" />
</svg>