<?xml version="1.0" encoding="utf-8"?>
<svg version="1.1" xmlns:xlink="http://www.w3.org/1999/xlink" width="18px" height="18px" viewBox="337 736  18 18" xmlns="http://www.w3.org/2000/svg">
  <path d="M 346 736  C 351.04 736  355 739.96  355 745  C 355 750.04  351.04 754  346 754  C 340.96 754  337 750.04  337 745  C 337 739.96  340.96 736  346 736  Z " fill-rule="nonzero" fill="#ffffff" stroke="none" />
  <path d="M 346 736.5  C 350.76 736.5  354.5 740.24  354.5 745  C 354.5 749.76  350.76 753.5  346 753.5  C 341.24 753.5  337.5 749.76  337.5 745  C 337.5 740.24  341.24 736.5  346 736.5  Z " stroke-width="1" stroke="#d7d7d7" fill="none" />
  <path d="M 346 749.5  C 343.48 749.5  341.5 747.52  341.5 745  C 341.5 742.48  343.48 740.5  346 740.5  C 348.52 740.5  350.5 742.48  350.5 745  C 350.5 747.52  348.52 749.5  346 749.5  " fill-rule="nonzero" fill="#d7d7d7" stroke="none" />
</svg>