<?xml version="1.0" encoding="utf-8"?>
<svg version="1.1" xmlns:xlink="http://www.w3.org/1999/xlink" width="18px" height="18px" viewBox="337 353  18 18" xmlns="http://www.w3.org/2000/svg">
  <path d="M 346 353  C 351.04 353  355 356.96  355 362  C 355 367.04  351.04 371  346 371  C 340.96 371  337 367.04  337 362  C 337 356.96  340.96 353  346 353  Z " fill-rule="nonzero" fill="#ffffff" stroke="none" />
  <path d="M 346 353.5  C 350.76 353.5  354.5 357.24  354.5 362  C 354.5 366.76  350.76 370.5  346 370.5  C 341.24 370.5  337.5 366.76  337.5 362  C 337.5 357.24  341.24 353.5  346 353.5  Z " stroke-width="1" stroke="#d7d7d7" fill="none" />
  <path d="M 346 366.5  C 343.48 366.5  341.5 364.52  341.5 362  C 341.5 359.48  343.48 357.5  346 357.5  C 348.52 357.5  350.5 359.48  350.5 362  C 350.5 364.52  348.52 366.5  346 366.5  " fill-rule="nonzero" fill="#d7d7d7" stroke="none" />
</svg>