<?xml version="1.0" encoding="utf-8"?>
<svg version="1.1" xmlns:xlink="http://www.w3.org/1999/xlink" width="18px" height="18px" viewBox="337 396  18 18" xmlns="http://www.w3.org/2000/svg">
  <path d="M 346 396  C 351.04 396  355 399.96  355 405  C 355 410.04  351.04 414  346 414  C 340.96 414  337 410.04  337 405  C 337 399.96  340.96 396  346 396  Z " fill-rule="nonzero" fill="#ffffff" stroke="none" />
  <path d="M 346 396.5  C 350.76 396.5  354.5 400.24  354.5 405  C 354.5 409.76  350.76 413.5  346 413.5  C 341.24 413.5  337.5 409.76  337.5 405  C 337.5 400.24  341.24 396.5  346 396.5  Z " stroke-width="1" stroke="#d7d7d7" fill="none" />
  <path d="M 346 409.5  C 343.48 409.5  341.5 407.52  341.5 405  C 341.5 402.48  343.48 400.5  346 400.5  C 348.52 400.5  350.5 402.48  350.5 405  C 350.5 407.52  348.52 409.5  346 409.5  " fill-rule="nonzero" fill="#d7d7d7" stroke="none" />
</svg>