<?xml version="1.0" encoding="utf-8"?>
<svg version="1.1" xmlns:xlink="http://www.w3.org/1999/xlink" width="18px" height="18px" viewBox="337 439  18 18" xmlns="http://www.w3.org/2000/svg">
  <path d="M 346 439  C 351.04 439  355 442.96  355 448  C 355 453.04  351.04 457  346 457  C 340.96 457  337 453.04  337 448  C 337 442.96  340.96 439  346 439  Z " fill-rule="nonzero" fill="#ffffff" stroke="none" />
  <path d="M 346 439.5  C 350.76 439.5  354.5 443.24  354.5 448  C 354.5 452.76  350.76 456.5  346 456.5  C 341.24 456.5  337.5 452.76  337.5 448  C 337.5 443.24  341.24 439.5  346 439.5  Z " stroke-width="1" stroke="#d7d7d7" fill="none" />
  <path d="M 346 452.5  C 343.48 452.5  341.5 450.52  341.5 448  C 341.5 445.48  343.48 443.5  346 443.5  C 348.52 443.5  350.5 445.48  350.5 448  C 350.5 450.52  348.52 452.5  346 452.5  " fill-rule="nonzero" fill="#d7d7d7" stroke="none" />
</svg>