<?xml version="1.0" encoding="utf-8"?>
<svg version="1.1" xmlns:xlink="http://www.w3.org/1999/xlink" width="18px" height="18px" viewBox="337 192  18 18" xmlns="http://www.w3.org/2000/svg">
  <path d="M 346 192  C 351.04 192  355 195.96  355 201  C 355 206.04  351.04 210  346 210  C 340.96 210  337 206.04  337 201  C 337 195.96  340.96 192  346 192  Z " fill-rule="nonzero" fill="#ffffff" stroke="none" />
  <path d="M 346 192.5  C 350.76 192.5  354.5 196.24  354.5 201  C 354.5 205.76  350.76 209.5  346 209.5  C 341.24 209.5  337.5 205.76  337.5 201  C 337.5 196.24  341.24 192.5  346 192.5  Z " stroke-width="1" stroke="#d7d7d7" fill="none" />
  <path d="M 346 205.5  C 343.48 205.5  341.5 203.52  341.5 201  C 341.5 198.48  343.48 196.5  346 196.5  C 348.52 196.5  350.5 198.48  350.5 201  C 350.5 203.52  348.52 205.5  346 205.5  " fill-rule="nonzero" fill="#d7d7d7" stroke="none" />
</svg>