<?xml version="1.0" encoding="utf-8"?>
<svg version="1.1" xmlns:xlink="http://www.w3.org/1999/xlink" width="18px" height="18px" viewBox="337 143  18 18" xmlns="http://www.w3.org/2000/svg">
  <path d="M 346 143  C 351.04 143  355 146.96  355 152  C 355 157.04  351.04 161  346 161  C 340.96 161  337 157.04  337 152  C 337 146.96  340.96 143  346 143  Z " fill-rule="nonzero" fill="#ffffff" stroke="none" />
  <path d="M 346 143.5  C 350.76 143.5  354.5 147.24  354.5 152  C 354.5 156.76  350.76 160.5  346 160.5  C 341.24 160.5  337.5 156.76  337.5 152  C 337.5 147.24  341.24 143.5  346 143.5  Z " stroke-width="1" stroke="#d7d7d7" fill="none" />
  <path d="M 346 156.5  C 343.48 156.5  341.5 154.52  341.5 152  C 341.5 149.48  343.48 147.5  346 147.5  C 348.52 147.5  350.5 149.48  350.5 152  C 350.5 154.52  348.52 156.5  346 156.5  " fill-rule="nonzero" fill="#d7d7d7" stroke="none" />
</svg>