<?xml version="1.0" encoding="utf-8"?>
<svg version="1.1" xmlns:xlink="http://www.w3.org/1999/xlink" width="40px" height="40px" xmlns="http://www.w3.org/2000/svg">
  <defs>
    <filter x="36px" y="762px" width="40px" height="40px" filterUnits="userSpaceOnUse" id="filter49">
      <feOffset dx="1" dy="1" in="SourceAlpha" result="shadowOffsetInner" />
      <feGaussianBlur stdDeviation="2.5" in="shadowOffsetInner" result="shadowGaussian" />
      <feComposite in2="shadowGaussian" operator="atop" in="SourceAlpha" result="shadowComposite" />
      <feColorMatrix type="matrix" values="0 0 0 0 0  0 0 0 0 0  0 0 0 0 0  0 0 0 0.698039215686274 0  " in="shadowComposite" />
    </filter>
    <g id="widget50">
      <path d="M 55 766  C 63.4 766  70 772.6  70 781  C 70 789.4  63.4 796  55 796  C 46.6 796  40 789.4  40 781  C 40 772.6  46.6 766  55 766  Z " fill-rule="nonzero" fill="#ffffff" stroke="none" />
      <path d="M 55 766.5  C 63.12 766.5  69.5 772.88  69.5 781  C 69.5 789.12  63.12 795.5  55 795.5  C 46.88 795.5  40.5 789.12  40.5 781  C 40.5 772.88  46.88 766.5  55 766.5  Z " stroke-width="1" stroke="#ffffff" fill="none" />
    </g>
  </defs>
  <g transform="matrix(1 0 0 1 -36 -762 )">
    <use xlink:href="#widget50" filter="url(#filter49)" />
    <use xlink:href="#widget50" />
  </g>
</svg>