<?xml version="1.0" encoding="utf-8"?>
<svg version="1.1" xmlns:xlink="http://www.w3.org/1999/xlink" width="29px" height="29px" xmlns="http://www.w3.org/2000/svg">
  <defs>
    <filter x="315px" y="490px" width="29px" height="29px" filterUnits="userSpaceOnUse" id="filter43">
      <feOffset dx="1" dy="1" in="SourceAlpha" result="shadowOffsetInner" />
      <feGaussianBlur stdDeviation="2.5" in="shadowOffsetInner" result="shadowGaussian" />
      <feComposite in2="shadowGaussian" operator="atop" in="SourceAlpha" result="shadowComposite" />
      <feColorMatrix type="matrix" values="0 0 0 0 0.498039215686275  0 0 0 0 0.498039215686275  0 0 0 0 0.498039215686275  0 0 0 0.698039215686274 0  " in="shadowComposite" />
    </filter>
    <g id="widget44">
      <path d="M 328.5 494  C 333.82 494  338 498.18  338 503.5  C 338 508.82  333.82 513  328.5 513  C 323.18 513  319 508.82  319 503.5  C 319 498.18  323.18 494  328.5 494  Z " fill-rule="nonzero" fill="#ffffff" stroke="none" />
      <path d="M 328.5 494.5  C 333.54 494.5  337.5 498.46  337.5 503.5  C 337.5 508.54  333.54 512.5  328.5 512.5  C 323.46 512.5  319.5 508.54  319.5 503.5  C 319.5 498.46  323.46 494.5  328.5 494.5  Z " stroke-width="1" stroke="#ffffff" fill="none" />
    </g>
  </defs>
  <g transform="matrix(1 0 0 1 -315 -490 )">
    <use xlink:href="#widget44" filter="url(#filter43)" />
    <use xlink:href="#widget44" />
  </g>
</svg>