<?xml version="1.0" encoding="utf-8"?>
<svg version="1.1" xmlns:xlink="http://www.w3.org/1999/xlink" width="35px" height="35px" xmlns="http://www.w3.org/2000/svg">
  <defs>
    <filter x="81px" y="566px" width="35px" height="35px" filterUnits="userSpaceOnUse" id="filter55">
      <feOffset dx="1" dy="1" in="SourceAlpha" result="shadowOffsetInner" />
      <feGaussianBlur stdDeviation="2.5" in="shadowOffsetInner" result="shadowGaussian" />
      <feComposite in2="shadowGaussian" operator="atop" in="SourceAlpha" result="shadowComposite" />
      <feColorMatrix type="matrix" values="0 0 0 0 0.666666666666667  0 0 0 0 0.666666666666667  0 0 0 0 0.666666666666667  0 0 0 0.698039215686274 0  " in="shadowComposite" />
    </filter>
    <g id="widget56">
      <path d="M 97.5 570  C 104.5 570  110 575.5  110 582.5  C 110 589.5  104.5 595  97.5 595  C 90.5 595  85 589.5  85 582.5  C 85 575.5  90.5 570  97.5 570  Z " fill-rule="nonzero" fill="#ffffff" stroke="none" />
      <path d="M 97.5 570.5  C 104.22 570.5  109.5 575.78  109.5 582.5  C 109.5 589.22  104.22 594.5  97.5 594.5  C 90.78 594.5  85.5 589.22  85.5 582.5  C 85.5 575.78  90.78 570.5  97.5 570.5  Z " stroke-width="1" stroke="#aaaaaa" fill="none" />
    </g>
  </defs>
  <g transform="matrix(1 0 0 1 -81 -566 )">
    <use xlink:href="#widget56" filter="url(#filter55)" />
    <use xlink:href="#widget56" />
  </g>
</svg>