<?xml version="1.0" encoding="utf-8"?>
<svg version="1.1" xmlns:xlink="http://www.w3.org/1999/xlink" width="18px" height="18px" viewBox="337 216  18 18" xmlns="http://www.w3.org/2000/svg">
  <path d="M 346 216  C 351.04 216  355 219.96  355 225  C 355 230.04  351.04 234  346 234  C 340.96 234  337 230.04  337 225  C 337 219.96  340.96 216  346 216  Z " fill-rule="nonzero" fill="#ffffff" stroke="none" />
  <path d="M 346 216.5  C 350.76 216.5  354.5 220.24  354.5 225  C 354.5 229.76  350.76 233.5  346 233.5  C 341.24 233.5  337.5 229.76  337.5 225  C 337.5 220.24  341.24 216.5  346 216.5  Z " stroke-width="1" stroke="#009dd9" fill="none" />
  <path d="M 346 229.5  C 343.48 229.5  341.5 227.52  341.5 225  C 341.5 222.48  343.48 220.5  346 220.5  C 348.52 220.5  350.5 222.48  350.5 225  C 350.5 227.52  348.52 229.5  346 229.5  " fill-rule="nonzero" fill="#009dd9" stroke="none" />
</svg>