<?xml version="1.0" encoding="utf-8"?>
<svg version="1.1" xmlns:xlink="http://www.w3.org/1999/xlink" width="18px" height="18px" viewBox="337 302  18 18" xmlns="http://www.w3.org/2000/svg">
  <path d="M 346 302  C 351.04 302  355 305.96  355 311  C 355 316.04  351.04 320  346 320  C 340.96 320  337 316.04  337 311  C 337 305.96  340.96 302  346 302  Z " fill-rule="nonzero" fill="#ffffff" stroke="none" />
  <path d="M 346 302.5  C 350.76 302.5  354.5 306.24  354.5 311  C 354.5 315.76  350.76 319.5  346 319.5  C 341.24 319.5  337.5 315.76  337.5 311  C 337.5 306.24  341.24 302.5  346 302.5  Z " stroke-width="1" stroke="#d7d7d7" fill="none" />
  <path d="M 346 315.5  C 343.48 315.5  341.5 313.52  341.5 311  C 341.5 308.48  343.48 306.5  346 306.5  C 348.52 306.5  350.5 308.48  350.5 311  C 350.5 313.52  348.52 315.5  346 315.5  " fill-rule="nonzero" fill="#d7d7d7" stroke="none" />
</svg>